HIERARCHY
ROOT Hips
{
	OFFSET 0.00 0.00 0.00
	CHANNELS 6 Xposition Yposition Zposition Xrotation Yrotation Zrotation
	JOINT LeftUpLeg
	{
		OFFSET 3.21546 0.00000 0.00000
		CHANNELS 3 Xrotation Yrotation Zrotation
		JOINT LeftLeg
		{
			OFFSET 0.00000 -17.44116 0.00000
			CHANNELS 3 Xrotation Yrotation Zrotation
			JOINT LeftFoot
			{
				OFFSET 0.00000 -16.24592 0.00000
				CHANNELS 3 Xrotation Yrotation Zrotation
				JOINT LeftToeBase
				{
					OFFSET 0.00000 -1.52239 5.68164
					CHANNELS 3 Xrotation Yrotation Zrotation
					End Site
					{
						OFFSET 0.00000 0.00000 2.95274
					}
				}
			}
		}
	}
	JOINT RightUpLeg
	{
		OFFSET -3.21546 0.00000 0.00000
		CHANNELS 3 Xrotation Yrotation Zrotation
		JOINT RightLeg
		{
			OFFSET 0.00000 -17.44116 0.00000
			CHANNELS 3 Xrotation Yrotation Zrotation
			JOINT RightFoot
			{
				OFFSET 0.00000 -16.24592 0.00000
				CHANNELS 3 Xrotation Yrotation Zrotation
				JOINT RightToeBase
				{
					OFFSET 0.00000 -1.52239 5.68164
					CHANNELS 3 Xrotation Yrotation Zrotation
					End Site
					{
						OFFSET 0.00000 0.00000 2.95274
					}
				}
			}
		}
	}
	JOINT Spine
	{
		OFFSET 0.00000 0.03937 0.00000
		CHANNELS 3 Xrotation Yrotation Zrotation
		JOINT Spine1
		{
			OFFSET 0.00000 7.54056 0.00000
			CHANNELS 3 Xrotation Yrotation Zrotation
			JOINT Neck
			{
				OFFSET 0.00000 9.62283 0.00000
				CHANNELS 3 Xrotation Yrotation Zrotation
				JOINT Head
				{
					OFFSET 0.00000 6.32687 0.00000
					CHANNELS 3 Xrotation Yrotation Zrotation
					End Site
					{
						OFFSET 0.00000 4.52754 0.00000
					}
				}
			}
			JOINT LeftShoulder
			{
				OFFSET 0.00000 9.62283 0.00000
				CHANNELS 3 Xrotation Yrotation Zrotation
				JOINT LeftArm
				{
					OFFSET 7.66701 -0.00003 0.00000
					CHANNELS 3 Xrotation Yrotation Zrotation
					JOINT LeftForeArm
					{
						OFFSET 10.65819 -0.00004 0.00000
						CHANNELS 3 Xrotation Yrotation Zrotation
						JOINT LeftHand
						{
							OFFSET 9.90299 -0.00004 0.00000
							CHANNELS 3 Xrotation Yrotation Zrotation
							JOINT LeftHandThumb
							{
								OFFSET 0.00000 0.00000 0.00000
								CHANNELS 3 Xrotation Yrotation Zrotation
								End Site
								{
									OFFSET 0.00000 0.00000 3.93699
								}
							}
							JOINT L_Wrist_End
							{
								OFFSET 3.93699 -0.00001 0.00000
								CHANNELS 3 Xrotation Yrotation Zrotation
							}
						}
					}
				}
			}
			JOINT RightShoulder
			{
				OFFSET 0.00000 9.62283 0.00000
				CHANNELS 3 Xrotation Yrotation Zrotation
				JOINT RightArm
				{
					OFFSET -7.66701 -0.00003 0.00000
					CHANNELS 3 Xrotation Yrotation Zrotation
					JOINT RightForeArm
					{
						OFFSET -10.65819 -0.00004 0.00000
						CHANNELS 3 Xrotation Yrotation Zrotation
						JOINT RightHand
						{
							OFFSET -9.90299 -0.00004 0.00000
							CHANNELS 3 Xrotation Yrotation Zrotation
							JOINT RightHandThumb
							{
								OFFSET 0.00000 0.00000 0.00000
								CHANNELS 3 Xrotation Yrotation Zrotation
								End Site
								{
									OFFSET 0.00000 0.00000 3.93699
								}
							}
							JOINT R_Wrist_End
							{
								OFFSET -5.39368 -0.00002 0.00000
								CHANNELS 3 Xrotation Yrotation Zrotation
							}
						}
					}
				}
			}
		}
	}
}
MOTION
Frames: 16
Frame Time: 0.033332
 -9.6360 32.0554 40.4024 -141.8437 82.7482 144.0086 -70.3720 57.7885 -13.4910 133.3457 0.0000 -0.0000 -2.0586 3.9262 -8.9381 -7.0400 0.0000 0.0000 -10.2572 -11.5159 -4.8527 51.8361 0.0000 -0.0000 -24.8321 -23.3157 -0.1761 -6.1061 -0.0000 0.0000 -3.0815 0.5457 0.2832 9.2566 -7.8414 1.2911 25.4800 16.1743 -6.4779 -7.5491 0.5805 1.7217 2.8021 5.7242 4.6385 -8.4891 -28.8112 -88.1198 -0.0006 -69.4626 -0.0004 3.5529 3.2357 10.6117 -0.0000 0.0000 -0.0000 -0.0000 0.0000 -0.0000 7.3016 16.9067 -6.2405 -19.2825 11.0390 86.8762 -0.0001 15.9261 -0.0000 -13.1255 -11.1142 9.6503 -0.0000 0.0000 -0.0000 -0.0000 0.0000 -0.0000
 -8.2580 32.8586 40.8019 -143.6619 81.2513 146.8569 -73.4934 56.8820 -10.3751 136.1691 -0.0000 -0.0000 -4.3358 7.9346 -5.3326 -7.7673 -0.0000 -0.0000 -3.7009 -12.6666 -4.0388 44.1805 0.0000 0.0000 -21.9246 -24.6073 -0.5456 -6.7271 -0.0000 0.0000 -2.7021 1.4108 -0.4864 8.1996 -7.0363 0.6180 25.4453 17.1708 -7.2929 -6.4094 -0.2531 1.8389 2.2374 7.5100 5.0867 -7.8601 -30.0084 -87.9296 -0.0006 -70.7984 -0.0004 2.2290 4.4413 6.9811 -0.0000 0.0000 -0.0000 -0.0000 0.0000 -0.0000 7.3286 18.0434 -6.0735 -17.7804 9.4745 88.1971 -0.0001 16.1499 -0.0000 -15.9116 -10.0379 9.5635 -0.0000 0.0000 -0.0000 -0.0000 0.0000 -0.0000
 -6.7753 34.1853 40.9643 -143.6012 79.4246 149.0617 -74.0092 58.0559 -9.0374 137.5545 -0.0000 -0.0000 -5.7759 12.0205 -3.0620 -8.3828 -0.0000 0.0000 3.1778 -11.3967 -4.2478 36.0473 0.0000 -0.0000 -12.1189 -26.4554 3.0326 -10.6022 0.0000 0.0000 -1.5590 2.0061 -1.4490 5.9982 -6.5792 -0.9526 26.0562 17.9747 -8.2057 -4.6305 -0.9082 1.6330 2.3284 7.9855 5.3491 -6.0385 -29.1362 -87.7265 -0.0007 -72.2966 -0.0005 -0.0077 4.7844 5.2881 -0.0000 -0.0000 0.0000 -0.0000 -0.0000 0.0000 7.3793 18.8389 -5.7980 -16.9439 8.8435 89.0377 -0.0001 15.0433 -0.0000 -17.1519 -9.4737 11.8252 -0.0000 0.0000 -0.0000 -0.0000 0.0000 -0.0000
 -5.3598 35.6976 40.9250 -148.1621 77.6332 155.5932 -73.1950 60.1143 -10.0377 137.2168 0.0000 0.0000 -4.1987 11.1207 -5.8932 -8.4653 -0.0000 0.0000 5.7464 -12.0704 -6.2197 32.8765 -0.0000 -0.0000 4.0357 -23.9687 10.0420 -18.8981 -0.0000 -0.0000 -1.3009 2.4845 -1.9164 4.4993 -6.1635 -2.0138 25.9151 18.3679 -8.7462 -2.0987 -1.8579 0.7627 1.9520 7.8101 5.8514 -5.0201 -29.5962 -88.0428 -0.0007 -72.4061 -0.0005 -0.3975 4.6240 6.1861 -0.0000 -0.0000 0.0000 -0.0000 -0.0000 0.0000 6.9280 18.7430 -6.1193 -16.0947 8.5840 89.5112 -0.0001 14.3851 -0.0000 -17.0042 -10.0050 12.1123 -0.0000 0.0000 -0.0000 -0.0000 0.0000 -0.0000
 -4.1205 37.0893 40.7912 -153.3042 75.4019 161.5632 -70.2362 61.8641 -12.9352 135.3452 0.0000 -0.0000 -3.8702 7.6862 -8.6760 -7.9550 0.0000 0.0000 3.4297 -14.7574 -8.5586 35.9243 0.0000 0.0000 20.1397 -20.1248 10.8059 -22.0950 0.0000 -0.0000 -1.2003 2.2698 -1.6947 3.8066 -6.3687 -2.2794 25.9517 18.4577 -9.0032 -1.0254 -2.3571 -0.3723 2.0292 7.5445 6.3216 -5.2568 -29.8770 -88.6235 -0.0007 -72.3396 -0.0005 -1.6702 5.1337 4.8926 -0.0000 0.0000 -0.0000 -0.0000 0.0000 -0.0000 6.7303 18.8620 -7.1107 -15.8428 8.8718 89.3611 -0.0001 13.6757 -0.0000 -15.1603 -10.1987 13.2055 -0.0000 0.0000 -0.0000 -0.0000 0.0000 -0.0000
 -2.9935 38.1065 40.8074 -158.1355 72.7430 166.2386 -67.0510 62.4981 -15.5781 133.4846 -0.0000 -0.0000 -3.3376 4.7139 -11.1099 -7.7456 0.0000 0.0000 -0.7831 -14.5604 -9.3924 41.4721 0.0000 0.0000 30.1675 -19.2205 7.7143 -10.6684 -0.0000 -0.0000 -0.9572 1.5093 -1.4335 3.5770 -7.0944 -2.1102 26.4423 18.2760 -8.9372 -1.9118 -1.9347 -0.5131 2.3891 6.8107 6.6850 -5.5894 -29.2761 -88.5776 -0.0007 -72.2898 -0.0005 -4.4928 5.7187 4.3421 -0.0000 0.0000 -0.0000 -0.0000 0.0000 -0.0000 7.0644 19.3483 -6.8301 -15.8186 9.7995 87.6570 -0.0001 14.0641 -0.0000 -13.5411 -10.8880 14.4749 -0.0000 0.0000 -0.0000 -0.0000 0.0000 -0.0000
 -1.8392 38.6793 40.9266 -162.8873 69.9317 170.4580 -65.2177 62.2344 -17.0819 133.0498 -0.0000 -0.0000 -3.0727 4.4632 -11.6649 -7.7778 0.0000 -0.0000 -3.4881 -14.4614 -8.9573 41.9115 -0.0000 0.0000 26.9275 -22.4181 9.3863 -9.7125 -0.0000 0.0000 -0.7661 0.7939 -1.3367 3.3310 -7.7708 -1.8300 25.9345 17.2735 -7.6548 -0.9205 -0.7698 -0.8364 2.4500 5.9291 7.2124 -5.7465 -28.3912 -88.6670 -0.0006 -71.0632 -0.0004 -7.1431 5.4514 4.7041 -0.0000 0.0000 -0.0000 -0.0000 0.0000 -0.0000 7.2923 18.8529 -6.3288 -16.0969 10.5468 87.0290 -0.0001 14.4107 -0.0000 -12.8801 -11.3222 15.0588 -0.0000 0.0000 -0.0000 -0.0000 0.0000 -0.0000
 -0.7288 38.8692 41.0952 -167.8940 67.6490 174.5791 -65.8560 61.2741 -16.6241 133.5733 -0.0000 0.0000 -3.7448 6.4304 -9.9363 -7.9486 0.0000 -0.0000 -4.9681 -13.9805 -8.2659 34.3896 0.0000 0.0000 23.6545 -23.1011 9.1839 -9.0913 -0.0000 -0.0000 -0.8218 0.4806 -0.9980 3.0413 -8.0308 -1.2361 25.5074 16.6344 -7.0505 1.2783 -0.8210 -0.4854 1.9211 5.5008 7.4532 -5.9139 -27.9028 -89.0656 -0.0005 -68.2923 -0.0004 -6.6052 4.3037 4.9925 -0.0000 0.0000 -0.0000 -0.0000 0.0000 -0.0000 6.8261 17.9081 -5.4665 -16.1481 11.2673 86.9312 -0.0001 14.0082 -0.0000 -12.1381 -11.7986 15.3460 -0.0000 0.0000 -0.0000 -0.0000 0.0000 -0.0000
 0.3534 38.7025 41.2275 -171.8104 65.9041 177.8412 -67.3980 60.3809 -15.1958 134.0918 -0.0000 -0.0000 -4.1384 7.8970 -8.5310 -7.8202 0.0000 0.0000 -6.2476 -14.5824 -8.3965 24.3777 0.0000 -0.0000 17.9211 -22.2466 8.8319 -9.2417 0.0000 -0.0000 -0.7407 0.3528 -0.5451 2.8311 -8.1149 -0.6539 25.5948 15.9195 -6.7951 3.5582 -1.3779 -0.7349 2.3256 5.3549 6.9587 -6.2469 -26.9652 -89.0919 -0.0005 -66.5752 -0.0003 -8.1335 1.6028 5.9407 -0.0000 -0.0000 0.0000 -0.0000 -0.0000 0.0000 6.8523 17.9809 -5.1449 -16.0223 11.7778 86.7119 -0.0001 14.0566 -0.0000 -12.5256 -11.6389 15.8872 -0.0000 0.0000 -0.0000 -0.0000 0.0000 -0.0000
 1.3897 38.0423 41.3763 -175.3419 64.1953 -179.6193 -69.9312 59.3869 -13.3219 134.0470 -0.0000 -0.0000 -3.8387 8.6919 -8.3620 -7.6349 0.0000 0.0000 -8.4891 -15.0029 -8.4893 17.1141 0.0000 0.0000 13.3169 -19.4221 7.2815 -10.0343 0.0000 0.0000 -0.5914 0.0783 0.0412 2.7434 -8.3255 0.3343 25.8952 15.8765 -7.2158 6.1977 -2.4082 -0.3458 3.0832 5.4244 6.4825 -6.3468 -25.8017 -89.1449 -0.0005 -67.1508 -0.0003 -8.7133 -0.2780 7.4858 -0.0000 0.0000 -0.0000 -0.0000 0.0000 -0.0000 7.2816 18.7654 -5.4891 -16.2609 12.0958 86.2942 -0.0001 14.4505 -0.0000 -13.0299 -10.8856 15.8169 -0.0000 0.0000 -0.0000 -0.0000 0.0000 -0.0000
 2.4788 36.8829 41.5431 -176.3543 62.4582 -178.9584 -72.0347 59.0509 -11.9122 133.3650 0.0000 0.0000 -3.6610 8.3649 -8.6485 -8.0956 0.0000 -0.0000 -10.7660 -12.4255 -9.1093 17.2424 0.0000 -0.0000 17.3368 -15.4223 12.1226 -9.8526 -0.0000 -0.0000 -0.3896 0.0591 0.1467 3.3365 -8.3081 0.8545 26.3474 15.0053 -7.3117 9.4725 -3.2202 1.1781 3.3073 5.2548 6.5330 -6.0193 -25.3235 -89.0660 -0.0005 -69.0491 -0.0004 -8.3070 -0.0214 8.7686 -0.0000 0.0000 -0.0000 -0.0000 0.0000 -0.0000 6.8692 19.0876 -5.4210 -16.3849 12.6990 85.6915 -0.0001 15.0200 0.0000 -13.4425 -10.5656 15.4233 -0.0000 0.0000 -0.0000 -0.0000 0.0000 -0.0000
 3.8044 35.2521 41.7798 -176.1588 59.2636 179.0764 -75.2150 57.5941 -11.2281 132.8645 -0.0000 -0.0000 -3.1569 8.2119 -9.5134 -8.5730 0.0000 0.0000 -12.2781 -13.2446 -7.2500 27.8657 0.0000 0.0000 0.3031 -16.5115 4.5884 -8.9444 -0.0000 0.0000 -0.7206 -0.5594 0.6800 4.1429 -8.8330 1.9356 26.9389 13.7645 -7.1858 13.0923 -3.7757 3.1416 3.7080 4.8006 6.3786 -4.8785 -24.7435 -88.4701 -0.0007 -72.2825 -0.0005 -7.1559 -1.3052 10.8431 -0.0000 0.0000 -0.0000 -0.0000 0.0000 -0.0000 6.8842 18.5912 -5.9841 -18.0316 13.7354 86.0665 -0.0001 15.4500 -0.0000 -12.8425 -10.6168 14.1511 -0.0000 0.0000 -0.0000 -0.0000 0.0000 -0.0000
 5.4096 33.7464 42.2249 -173.2771 56.1390 170.3965 -80.7362 52.9490 -6.8907 132.3845 -0.0000 -0.0000 -4.3525 9.5137 -7.9810 -8.6989 0.0000 0.0000 -9.0415 -11.3210 2.5210 34.1780 0.0000 -0.0000 -12.0359 -26.1484 0.8384 -4.5379 -0.0000 -0.0000 -1.3802 -0.8655 2.9726 7.9729 -8.6614 5.4913 27.0316 12.6917 -7.3290 14.3076 -5.4562 4.9842 3.5346 5.6398 4.4667 -4.9578 -25.3134 -86.5851 -0.0008 -74.7417 -0.0006 -4.5651 -1.0386 13.6525 -0.0000 0.0000 -0.0000 -0.0000 0.0000 -0.0000 5.6318 17.8125 -5.2990 -20.0725 15.3844 84.9032 -0.0001 16.0472 0.0000 -12.3725 -11.4998 12.1069 -0.0000 0.0000 -0.0000 -0.0000 0.0000 -0.0000
 6.6482 32.9777 42.1486 -172.2981 54.3225 168.3018 -82.0899 54.4362 -6.3230 128.3724 0.0000 0.0000 -6.6617 13.2244 -5.7786 -8.9038 -0.0000 -0.0000 -11.7432 -13.4349 3.4233 45.8930 0.0000 0.0000 -14.7273 -27.2959 -0.3139 -7.1522 -0.0000 -0.0000 -1.9345 -0.9380 3.8451 9.6344 -8.6006 6.1064 27.6828 13.0833 -8.4656 15.0630 -7.0157 5.7670 4.8599 6.6023 4.3709 -6.5062 -23.2800 -88.7983 -0.0008 -74.5365 -0.0006 -4.3265 -2.2787 15.2857 -0.0000 0.0000 -0.0000 -0.0000 0.0000 -0.0000 6.4334 18.5513 -6.8835 -23.1095 14.4869 83.9655 -0.0001 16.1809 -0.0000 -9.8493 -11.4096 11.8400 -0.0000 0.0000 -0.0000 -0.0000 0.0000 -0.0000
 7.9070 32.8664 41.7194 -168.8509 51.8836 168.3837 -79.4132 59.0609 -8.2974 125.8142 -0.0000 -0.0000 -6.1707 13.1924 -6.1874 -8.2834 0.0000 0.0000 -8.6826 -22.0099 -2.1231 48.3065 0.0000 -0.0000 -16.8686 -21.1625 -0.6194 -8.1340 0.0000 -0.0000 -0.2640 -0.4854 3.5437 8.1771 -8.8514 3.5006 29.5086 13.2814 -10.0985 16.1883 -8.1564 7.5059 5.3948 7.0013 4.2258 -4.3413 -24.3083 -87.5512 -0.0010 -77.6917 -0.0008 -5.1002 -1.4566 16.4241 -0.0000 0.0000 -0.0000 -0.0000 0.0000 -0.0000 5.7227 20.1298 -7.5838 -21.0161 14.6701 82.6752 -0.0001 17.6506 -0.0000 -8.9333 -12.6051 14.7222 -0.0000 0.0000 -0.0000 -0.0000 0.0000 -0.0000
 9.4178 33.4685 41.3993 -169.1865 49.5626 169.6250 -82.7250 59.5396 -6.3142 127.0543 -0.0000 0.0000 -4.7324 10.2471 -11.1788 -9.0164 -0.0000 -0.0000 -2.9103 -21.6228 -0.1156 42.7318 0.0000 0.0000 -15.1004 -23.3075 0.3655 -9.1773 0.0000 0.0000 -1.5036 0.3201 3.0874 8.0905 -8.0714 2.8084 29.1540 12.4967 -9.7480 19.0128 -8.9498 8.0168 5.1427 7.5268 4.5037 -3.5287 -26.3216 -85.7702 -0.0011 -78.7383 -0.0009 -4.8112 -2.0857 13.0622 -0.0000 0.0000 -0.0000 -0.0000 0.0000 -0.0000 5.9958 19.2879 -8.5520 -20.6507 17.2617 83.4002 -0.0001 18.1262 -0.0000 -10.8678 -12.5556 15.5803 -0.0000 0.0000 -0.0000 -0.0000 0.0000 -0.0000
